<?xml version="1.0" standalone="no"?>
<!DOCTYPE svg PUBLIC "-//W3C//DTD SVG 20010904//EN"
 "http://www.w3.org/TR/2001/REC-SVG-20010904/DTD/svg10.dtd">
<svg version="1.0" xmlns="http://www.w3.org/2000/svg"
 width="512.000000pt" height="512.000000pt" viewBox="0 0 512.000000 512.000000"
 preserveAspectRatio="xMidYMid meet">
<metadata>
Created by potrace 1.16, written by Peter Selinger 2001-2019
</metadata>
<g transform="translate(0.000000,512.000000) scale(0.100000,-0.100000)"
fill="#808080" stroke="none">
<path d="M1055 4425 c-79 -32 -154 -109 -184 -188 l-21 -58 2 -1622 3 -1622
23 -46 c36 -74 87 -125 160 -161 l67 -33 1625 0 1625 0 57 28 c72 35 130 93
165 165 l28 57 0 1625 0 1625 -26 56 c-36 76 -90 133 -157 166 l-57 28 -1625
2 -1625 3 -60 -25z m3293 -154 c47 -24 70 -50 88 -98 18 -53 19 -3149 0 -3201
-17 -48 -70 -98 -119 -111 -31 -9 -444 -11 -1613 -9 l-1570 3 -42 28 c-23 15
-51 45 -62 67 -20 39 -20 54 -20 1619 0 1092 3 1588 11 1608 14 37 57 82 94
99 25 11 313 13 1613 14 1534 0 1584 -1 1620 -19z"/>
<path d="M2555 4229 c-710 -74 -1303 -604 -1454 -1300 -44 -205 -48 -364 -15
-594 92 -639 501 -1137 1089 -1330 208 -68 283 -79 545 -80 206 0 249 3 348
23 521 105 929 417 1147 875 126 265 183 542 172 836 -36 941 -885 1669 -1832
1570z m375 -173 c497 -67 906 -347 1122 -771 71 -139 111 -255 145 -414 23
-110 27 -150 27 -311 1 -202 -9 -270 -66 -450 -117 -373 -405 -707 -763 -884
-205 -101 -379 -145 -612 -153 -231 -8 -394 19 -598 98 -355 138 -645 406
-811 753 -150 313 -184 599 -113 949 29 145 64 248 129 382 219 453 645 744
1185 808 75 9 259 5 355 -7z"/>
<path d="M2350 3971 c-64 -12 -146 -45 -192 -77 -56 -39 -115 -126 -141 -209
-32 -102 -32 -325 1 -439 32 -111 88 -214 181 -332 l80 -102 -16 -41 c-9 -22
-22 -41 -29 -41 -6 0 -53 20 -102 45 -101 51 -148 96 -213 205 -54 92 -88 180
-109 285 -15 72 -24 94 -45 112 -54 47 -101 27 -208 -87 -365 -388 -335 -748
78 -940 127 -59 207 -75 370 -74 77 1 174 8 215 16 l75 14 28 -39 c16 -22 25
-42 20 -46 -5 -3 -34 -25 -64 -48 -75 -58 -133 -82 -231 -94 -109 -14 -254 3
-369 42 -107 36 -123 36 -160 0 -37 -37 -37 -68 -4 -183 76 -261 198 -442 345
-512 59 -28 74 -31 165 -31 168 0 292 57 447 204 108 102 168 196 228 355 l44
114 45 4 c25 3 47 4 48 3 1 0 7 -41 14 -91 14 -110 4 -165 -46 -266 -64 -127
-131 -213 -253 -321 -36 -32 -42 -43 -42 -76 0 -72 54 -101 254 -136 111 -19
313 -20 383 -1 221 59 336 249 320 526 -12 196 -72 347 -207 518 l-81 102 16
45 17 44 52 -20 c90 -36 147 -72 193 -123 89 -100 161 -250 189 -396 16 -84
34 -117 71 -131 44 -16 85 6 170 94 339 350 356 684 44 891 -185 123 -408 164
-666 122 l-99 -17 -32 38 -32 38 57 44 c98 76 166 102 285 108 122 7 245 -9
334 -43 80 -30 131 -31 160 -4 43 40 39 90 -21 260 -88 252 -217 413 -366 457
-81 23 -226 14 -309 -19 -106 -44 -173 -89 -268 -183 -105 -104 -163 -195
-219 -346 -40 -105 -53 -119 -110 -119 -30 0 -35 16 -42 130 -5 89 -4 100 24
172 17 42 56 115 86 161 50 74 83 110 198 218 58 54 46 128 -25 160 -104 45
-423 81 -536 60z m257 -162 c43 -6 81 -14 85 -17 4 -4 -11 -28 -33 -54 -58
-68 -142 -206 -180 -296 -31 -72 -33 -85 -34 -192 0 -63 4 -145 8 -181 l8 -65
-41 -29 c-22 -15 -42 -26 -43 -24 -2 2 -29 36 -59 74 -131 165 -189 344 -167
515 28 227 167 309 456 269z m911 -234 c79 -33 165 -144 222 -285 18 -44 31
-83 28 -85 -2 -2 -44 3 -93 12 -65 11 -126 14 -220 10 -189 -7 -269 -37 -421
-158 l-60 -48 -47 17 c-26 9 -47 20 -47 23 0 22 88 211 120 258 45 67 152 169
214 206 106 62 227 82 304 50z m-1778 -605 c48 -95 121 -199 171 -245 59 -54
106 -82 213 -126 l91 -37 9 -46 c5 -25 6 -49 3 -53 -11 -11 -156 -32 -223 -32
-133 -2 -272 39 -378 110 -117 78 -172 168 -164 266 6 69 67 192 145 290 l57
72 21 -67 c12 -37 37 -96 55 -132z m1137 -90 c77 -38 144 -111 173 -188 33
-87 25 -195 -20 -280 -37 -70 -87 -119 -159 -154 -65 -32 -214 -33 -283 -1
-140 64 -225 224 -199 369 43 233 279 356 488 254z m755 -189 c192 -49 331
-164 358 -294 18 -89 -25 -197 -138 -346 -47 -61 -57 -70 -63 -55 -73 194
-135 307 -222 400 -60 64 -167 129 -284 170 -51 17 -53 19 -53 55 0 21 -2 44
-6 52 -13 36 285 49 408 18z m-402 -712 c69 -133 95 -295 69 -421 -30 -140
-108 -209 -257 -227 -61 -7 -196 0 -264 15 l-27 5 52 64 c112 136 200 315 212
435 6 57 -6 204 -21 265 -4 16 5 28 38 52 l42 31 58 -72 c32 -39 76 -105 98
-147z m-677 42 c-50 -133 -94 -202 -188 -296 -66 -66 -108 -99 -156 -123 -116
-56 -216 -65 -290 -27 -72 37 -150 148 -211 298 -15 38 -28 70 -28 71 0 2 28
-3 63 -11 80 -17 324 -19 402 -3 88 18 203 82 304 168 l35 29 47 -20 47 -20
-25 -66z"/>
<path d="M2653 2690 c-90 -55 -82 -200 14 -245 41 -20 100 -16 138 9 83 54 83
187 1 237 -41 25 -112 25 -153 -1z"/>
<path d="M1112 4187 c-51 -55 -12 -147 63 -147 76 0 114 92 60 145 -33 34 -93
34 -123 2z"/>
<path d="M4221 4186 c-33 -35 -31 -93 4 -123 25 -22 67 -29 100 -17 21 8 45
56 45 89 0 67 -102 101 -149 51z"/>
<path d="M1112 1077 c-31 -33 -30 -90 4 -124 22 -22 32 -25 67 -20 50 7 77 36
77 82 0 18 -9 44 -21 59 -28 35 -95 37 -127 3z"/>
<path d="M4220 1080 c-31 -31 -28 -102 6 -129 83 -66 189 40 123 123 -27 34
-98 37 -129 6z"/>
</g>
</svg>
