<?xml version="1.0" standalone="no"?>
<!DOCTYPE svg PUBLIC "-//W3C//DTD SVG 20010904//EN"
 "http://www.w3.org/TR/2001/REC-SVG-20010904/DTD/svg10.dtd">
<svg version="1.0" xmlns="http://www.w3.org/2000/svg"
 width="512.000000pt" height="512.000000pt" viewBox="0 0 512.000000 512.000000"
 preserveAspectRatio="xMidYMid meet">
<metadata>
Created by potrace 1.16, written by Peter Selinger 2001-2019
</metadata>
<g transform="translate(0.000000,512.000000) scale(0.100000,-0.100000)"
fill="#808080" stroke="none">
<path d="M816 5075 c-104 -42 -177 -117 -215 -220 l-21 -56 2 -2252 3 -2252
27 -57 c37 -79 98 -142 177 -181 l66 -32 1705 0 1705 0 57 27 c79 37 142 98
181 177 l32 66 0 2265 0 2265 -32 66 c-39 79 -102 140 -181 177 l-57 27 -1695
2 -1695 3 -59 -25z m3435 -117 c54 -24 115 -83 141 -136 l23 -47 0 -2215 c0
-2039 -1 -2218 -17 -2251 -24 -54 -83 -115 -136 -141 l-47 -23 -1655 0 -1655
0 -47 23 c-53 26 -112 87 -136 141 -16 33 -17 212 -17 2251 0 2023 1 2218 16
2251 37 81 116 145 197 159 26 4 778 7 1672 6 1488 -1 1628 -2 1661 -18z"/>
<path d="M992 4764 c-56 -29 -86 -77 -90 -149 -8 -117 51 -186 163 -193 117
-8 186 51 193 163 5 76 -15 124 -66 163 -45 34 -148 42 -200 16z"/>
<path d="M2355 4774 c-335 -50 -622 -176 -865 -380 -284 -237 -472 -551 -562
-936 -22 -91 -22 -110 -26 -988 -3 -969 -3 -984 50 -1150 59 -186 147 -329
288 -471 144 -145 292 -237 480 -297 165 -53 176 -53 1240 -50 l985 3 66 32
c79 39 140 102 177 181 l27 57 0 1285 c0 1218 -1 1290 -19 1375 -139 669 -631
1168 -1298 1316 -74 17 -136 21 -303 24 -115 2 -223 1 -240 -1z m510 -152
c305 -66 558 -203 776 -421 299 -300 449 -661 449 -1083 0 -421 -148 -778
-449 -1079 -235 -234 -503 -375 -816 -429 -106 -18 -270 -28 -281 -18 -3 3 84
86 192 184 211 191 234 221 234 304 0 86 -56 164 -136 190 -80 27 -106 17
-525 -205 -217 -114 -421 -223 -455 -241 l-60 -34 -100 67 c-126 85 -307 265
-392 390 -117 173 -197 359 -244 570 -19 83 -22 129 -22 303 0 175 3 220 22
303 47 211 136 415 255 584 77 109 246 279 353 356 196 139 428 233 669 273
116 19 413 11 530 -14z m-1694 -2421 c111 -164 263 -324 407 -426 39 -27 71
-52 71 -55 1 -3 -17 -15 -38 -27 -76 -44 -135 -136 -151 -237 -30 -188 103
-369 287 -394 75 -10 151 0 208 28 25 12 131 99 236 193 l191 172 206 6 c284
8 451 46 679 154 351 166 620 431 788 776 l46 94 -3 -830 -3 -830 -23 -47
c-13 -26 -41 -63 -64 -83 -82 -75 -4 -70 -1068 -70 -1025 0 -1020 0 -1179 52
-166 54 -290 131 -422 262 -128 129 -205 252 -259 411 -49 144 -52 179 -57
670 l-5 465 51 -104 c29 -57 74 -138 102 -180z m1648 -75 c49 -52 51 -49 -434
-489 -247 -225 -468 -417 -490 -428 -43 -20 -128 -25 -168 -10 -38 15 -96 70
-118 112 -38 75 -17 190 45 248 33 31 1096 591 1122 591 11 0 31 -11 43 -24z"/>
<path d="M2400 3724 c-215 -56 -390 -233 -445 -449 -19 -76 -19 -234 0 -310
56 -219 231 -394 450 -450 76 -19 234 -19 310 0 219 56 394 231 450 450 19 76
19 234 0 310 -55 216 -234 395 -450 450 -75 19 -241 19 -315 -1z m253 -119
c26 -4 82 -24 125 -45 102 -51 179 -131 229 -236 33 -69 37 -87 41 -179 5
-110 -6 -160 -56 -260 -32 -64 -133 -165 -197 -197 -100 -50 -149 -61 -261
-56 -97 4 -109 7 -187 46 -107 53 -183 130 -235 239 -37 77 -37 79 -37 203 0
124 0 126 37 203 52 108 128 186 233 238 78 39 173 60 235 53 14 -2 46 -6 73
-9z"/>
<path d="M2419 3477 c-99 -41 -156 -94 -207 -190 -25 -48 -27 -61 -27 -167 0
-112 1 -117 34 -178 41 -75 103 -135 179 -170 51 -24 69 -27 167 -27 106 0
112 1 173 34 75 41 135 103 170 179 24 50 27 69 27 162 0 99 -2 110 -32 171
-39 79 -102 140 -181 177 -47 22 -74 27 -152 30 -81 2 -103 -1 -151 -21z m235
-121 c92 -38 156 -135 156 -236 0 -73 -16 -114 -65 -168 -100 -111 -270 -111
-371 0 -48 54 -64 95 -64 168 0 100 53 183 145 229 48 24 150 28 199 7z"/>
<path d="M3312 1248 c-17 -17 -17 -399 0 -416 16 -16 80 -16 96 0 17 17 17
399 0 416 -16 16 -80 16 -96 0z"/>
<path d="M3552 1248 c-17 -17 -17 -399 0 -416 16 -16 80 -16 96 0 17 17 17
399 0 416 -16 16 -80 16 -96 0z"/>
<path d="M3792 1248 c-17 -17 -17 -399 0 -416 16 -16 80 -16 96 0 17 17 17
399 0 416 -16 16 -80 16 -96 0z"/>
<path d="M3952 4764 c-56 -29 -86 -77 -90 -149 -8 -117 51 -186 163 -193 117
-8 186 51 193 163 5 76 -15 124 -66 163 -45 34 -148 42 -200 16z"/>
<path d="M992 684 c-56 -29 -86 -77 -90 -149 -8 -117 51 -186 163 -193 117 -8
186 51 193 163 5 76 -15 124 -66 163 -45 34 -148 42 -200 16z"/>
</g>
</svg>
