<?xml version="1.0" standalone="no"?>
<!DOCTYPE svg PUBLIC "-//W3C//DTD SVG 20010904//EN"
 "http://www.w3.org/TR/2001/REC-SVG-20010904/DTD/svg10.dtd">
<svg version="1.0" xmlns="http://www.w3.org/2000/svg"
 width="512.000000pt" height="512.000000pt" viewBox="0 0 512.000000 512.000000"
 preserveAspectRatio="xMidYMid meet">
<metadata>
Created by potrace 1.16, written by Peter Selinger 2001-2019
</metadata>
<g transform="translate(0.000000,512.000000) scale(0.100000,-0.100000)"
fill="#808080" stroke="none">
<path d="M392 5094 c-64 -32 -108 -83 -127 -148 -23 -75 -23 -4697 0 -4772 19
-65 63 -116 127 -148 51 -26 54 -26 289 -26 259 0 278 3 343 60 19 17 76 87
128 155 l92 125 1103 0 1102 0 108 -142 c94 -125 115 -147 163 -171 l55 -28
425 3 425 3 50 24 c66 33 131 100 163 169 l27 57 0 2305 0 2305 -27 57 c-32
69 -97 136 -163 169 l-50 24 -2090 3 -2091 2 -52 -26z m3868 -2534 l0 -2380
-226 0 -227 0 -31 33 c-17 19 -46 55 -64 80 l-33 47 144 0 c136 0 145 1 164
22 11 13 23 34 26 47 9 36 -16 86 -49 99 -22 9 -414 12 -1631 10 l-1601 -3
-26 -24 c-32 -30 -35 -87 -7 -122 18 -23 27 -24 166 -29 l147 -5 -38 -50 c-20
-27 -48 -62 -62 -77 l-26 -28 -202 0 c-184 0 -204 2 -225 19 l-24 19 -3 571
-2 571 1764 0 c1223 0 1773 3 1793 11 38 14 83 57 99 96 17 40 20 347 3 390
-30 79 -98 112 -231 113 l-98 0 0 913 c0 1005 2 963 -61 1040 -17 21 -54 50
-83 65 l-51 27 -1380 0 c-1108 0 -1387 -3 -1417 -13 -60 -21 -111 -65 -143
-123 l-30 -54 -3 -927 -2 -928 -80 0 -80 0 2 1466 3 1466 24 19 c23 19 67 19
1912 19 l1889 0 0 -2380z m359 2351 c18 -13 42 -42 52 -65 18 -40 19 -118 19
-2286 0 -2168 -1 -2246 -19 -2286 -29 -63 -72 -88 -158 -93 l-73 -3 0 2382 0
2382 73 -3 c56 -3 79 -9 106 -28z m-1094 -1085 c18 -8 38 -23 44 -34 8 -15 11
-295 11 -921 l0 -901 -79 0 -79 0 -4 183 c-4 163 -7 189 -30 254 -37 104 -72
158 -152 238 -130 130 -257 175 -488 175 -134 0 -140 -1 -163 -25 -31 -30 -34
-92 -6 -126 18 -23 27 -24 173 -30 202 -8 274 -34 372 -138 90 -97 116 -187
116 -397 l0 -134 -79 0 -79 0 -4 158 c-4 181 -18 224 -90 286 -61 53 -112 66
-255 66 -118 0 -125 -1 -148 -25 -35 -34 -35 -96 0 -130 23 -24 30 -25 139
-25 107 0 117 -2 143 -24 28 -24 28 -25 31 -165 l4 -141 -1066 0 -1066 0 0
895 c0 684 3 900 12 921 26 55 -34 53 1391 54 1114 0 1323 -2 1352 -14z m395
-2161 l0 -125 -1745 0 -1745 0 0 125 0 125 1745 0 1745 0 0 -125z"/>
<path d="M745 4761 c-165 -74 -204 -293 -75 -421 156 -157 424 -61 438 156 6
84 -12 143 -56 195 -71 83 -210 115 -307 70z m159 -182 c45 -35 33 -106 -23
-129 -38 -15 -80 3 -99 43 -35 73 56 138 122 86z"/>
<path d="M3722 4754 c-206 -102 -180 -413 39 -478 66 -20 92 -20 158 0 169 50
236 263 128 406 -73 95 -215 127 -325 72z m173 -179 c14 -13 25 -36 25 -50 0
-32 -50 -85 -80 -85 -30 0 -80 53 -80 85 0 36 41 75 80 75 19 0 40 -9 55 -25z"/>
<path d="M780 1191 c-82 -25 -151 -94 -175 -175 -19 -63 -19 -89 1 -157 20
-67 97 -148 160 -167 181 -54 344 64 344 249 0 117 -68 213 -174 244 -53 16
-115 18 -156 6z m133 -202 c25 -30 22 -75 -8 -104 -35 -36 -76 -33 -110 7 -32
37 -28 71 12 106 31 28 78 24 106 -9z"/>
<path d="M3770 1191 c-147 -48 -225 -200 -175 -342 21 -60 58 -104 113 -136
41 -25 57 -28 132 -28 74 0 91 3 131 27 178 105 169 366 -16 460 -43 22 -144
33 -185 19z m121 -200 c17 -18 29 -40 29 -56 0 -36 -41 -75 -80 -75 -39 0 -80
39 -80 75 0 32 50 85 80 85 12 0 35 -13 51 -29z"/>
<path d="M963 3648 c-29 -33 -35 -57 -22 -95 13 -39 65 -69 102 -57 67 20 92
107 44 152 -32 30 -96 30 -124 0z"/>
<path d="M1517 3650 c-279 -71 -497 -294 -563 -577 -22 -96 -20 -269 5 -364
92 -356 420 -597 786 -576 127 7 196 26 315 84 81 40 109 60 191 142 81 82
102 110 142 191 66 136 81 200 81 350 0 100 -4 141 -22 204 -73 256 -254 446
-507 532 -110 37 -310 44 -428 14z m153 -284 c6 -32 9 -73 6 -91 -6 -29 -11
-33 -47 -39 -39 -6 -43 -4 -80 38 -22 25 -67 63 -100 85 l-60 40 61 31 c33 17
86 37 118 44 l57 13 16 -31 c9 -17 22 -57 29 -90z m237 89 c74 -28 153 -75
153 -90 -1 -27 -44 -100 -85 -144 l-46 -49 -39 22 -39 21 5 51 c6 46 -7 159
-22 199 -8 20 -6 19 73 -10z m-560 -250 c29 -19 60 -46 69 -60 16 -24 16 -28
-2 -60 l-19 -35 -83 0 c-46 0 -103 -5 -128 -11 -25 -6 -47 -9 -50 -7 -8 8 41
131 71 178 24 39 29 42 58 36 18 -4 55 -22 84 -41z m928 -148 c9 -32 14 -64
11 -72 -7 -20 -136 -57 -187 -53 -41 3 -44 5 -55 45 l-12 42 43 36 c25 20 63
65 87 101 l42 64 27 -53 c15 -29 35 -79 44 -110z m-523 3 c41 -12 104 -75 114
-115 10 -39 -2 -105 -24 -134 -10 -14 -34 -37 -53 -49 -28 -20 -44 -23 -91
-20 -172 12 -213 227 -58 306 50 25 60 26 112 12z m-386 -217 c3 -16 8 -34 10
-41 2 -7 -24 -41 -59 -76 -34 -34 -71 -79 -82 -99 -11 -20 -22 -37 -26 -37
-10 0 -67 132 -78 180 -6 26 -6 49 -1 54 19 19 118 45 172 46 55 0 58 -1 64
-27z m909 -95 c-10 -45 -57 -147 -82 -177 l-20 -25 -46 18 c-45 17 -147 98
-147 117 0 5 10 24 21 42 l22 32 101 1 c55 1 112 6 126 12 14 6 26 11 28 11 2
1 0 -14 -3 -31z m-751 -140 l34 -22 4 -111 c3 -60 9 -119 13 -129 8 -17 5 -19
-25 -12 -40 7 -174 72 -190 91 -16 19 22 97 76 155 26 28 48 50 51 50 2 0 18
-10 37 -22z m454 -175 c23 -14 42 -27 42 -29 0 -16 -180 -84 -221 -84 -26 0
-59 96 -59 173 l0 63 42 10 42 9 55 -59 c31 -32 75 -69 99 -83z"/>
<path d="M2413 3648 c-46 -52 -31 -127 30 -147 38 -13 62 -7 95 22 31 29 31
95 -1 125 -32 30 -96 30 -124 0z"/>
<path d="M2980 3648 c-19 -13 -45 -39 -57 -57 -23 -33 -23 -40 -23 -306 0
-266 0 -273 23 -306 12 -18 38 -44 56 -56 31 -21 45 -23 174 -23 125 0 143 2
179 22 21 12 49 38 61 58 21 33 22 47 25 293 3 247 2 260 -18 302 -39 80 -62
90 -235 93 -143 3 -152 2 -185 -20z m260 -363 l0 -205 -80 0 -80 0 0 205 0
205 80 0 80 0 0 -205z"/>
<path d="M963 2198 c-29 -33 -35 -57 -22 -95 31 -96 169 -69 169 33 0 34 -5
47 -26 63 -37 29 -94 28 -121 -1z"/>
<path d="M2413 2198 c-81 -90 42 -213 127 -128 29 29 27 100 -3 128 -32 30
-96 30 -124 0z"/>
</g>
</svg>
