<?xml version="1.0" standalone="no"?>
<!DOCTYPE svg PUBLIC "-//W3C//DTD SVG 20010904//EN"
 "http://www.w3.org/TR/2001/REC-SVG-20010904/DTD/svg10.dtd">
<svg version="1.0" xmlns="http://www.w3.org/2000/svg"
 width="512.000000pt" height="512.000000pt" viewBox="0 0 512.000000 512.000000"
 preserveAspectRatio="xMidYMid meet">
<metadata>
Created by potrace 1.16, written by Peter Selinger 2001-2019
</metadata>
<g transform="translate(0.000000,512.000000) scale(0.100000,-0.100000)"
fill="#808080" stroke="none">
<path d="M920 4583 c-29 -11 -64 -36 -99 -72 -51 -52 -71 -91 -315 -611 l-261
-555 -3 -1293 -2 -1294 26 -59 c29 -64 78 -115 146 -151 l43 -23 2087 -3
c2071 -2 2087 -2 2141 18 70 26 125 75 162 141 l30 54 3 1287 c2 1230 1 1289
-16 1335 -10 26 -132 290 -272 586 -238 508 -255 540 -301 581 -92 82 52 76
-1733 75 -1424 0 -1596 -2 -1636 -16z m3240 -175 c29 -20 61 -81 226 -433
l193 -410 -1010 -3 c-555 -1 -1463 -1 -2019 0 l-1010 3 193 410 c167 353 198
413 227 433 l33 22 1567 0 1567 0 33 -22z m470 -1036 c19 -9 45 -32 57 -51
l23 -34 0 -1249 c0 -1372 4 -1276 -58 -1323 -27 -20 -45 -20 -2080 -23 -2279
-2 -2098 -8 -2142 63 -20 32 -20 42 -18 1293 3 1244 3 1260 23 1282 11 13 34
31 50 41 29 18 101 19 2070 19 1922 0 2042 -1 2075 -18z"/>
<path d="M582 3247 c-20 -21 -22 -34 -22 -130 0 -126 11 -147 80 -147 69 0 80
21 80 148 0 100 -2 110 -23 130 -32 30 -87 29 -115 -1z"/>
<path d="M4422 3247 c-20 -21 -22 -34 -22 -130 0 -126 11 -147 80 -147 69 0
80 21 80 148 0 100 -2 110 -23 130 -32 30 -87 29 -115 -1z"/>
<path d="M3265 3049 c-302 -39 -589 -227 -740 -484 -93 -159 -135 -300 -142
-480 -8 -190 26 -351 107 -509 320 -623 1156 -744 1641 -239 117 121 193 254
246 428 25 84 27 102 27 275 0 173 -2 191 -27 273 -57 185 -135 318 -261 443
-170 169 -367 264 -606 294 -96 11 -146 11 -245 -1z m335 -190 c86 -22 213
-81 282 -131 l47 -34 -63 -63 -64 -64 -29 20 c-107 76 -235 115 -378 115 -145
0 -272 -39 -378 -114 l-29 -21 -64 64 -64 63 28 23 c44 37 192 109 268 132
144 44 296 47 444 10z m-761 -454 c-147 -218 -144 -515 8 -748 l18 -27 -63
-63 -62 -62 -25 30 c-36 44 -122 221 -140 290 -23 87 -30 249 -15 342 21 132
88 292 157 373 l26 31 62 -61 63 -62 -29 -43z m1249 121 c44 -61 108 -198 129
-276 25 -91 25 -329 1 -420 -20 -74 -105 -250 -143 -295 l-25 -30 -62 63 c-54
53 -61 64 -51 80 37 53 74 125 93 182 31 90 39 270 16 360 -15 60 -78 201
-108 242 -11 15 -5 26 47 78 33 33 62 60 65 60 4 0 21 -20 38 -44z m-543 -17
c33 -10 77 -29 98 -42 l37 -23 -63 -62 -64 -63 -44 18 c-28 11 -70 18 -114 18
-44 0 -86 -7 -114 -18 l-44 -18 -64 63 -63 62 37 23 c115 70 259 85 398 42z
m-488 -251 l62 -61 -16 -31 c-10 -18 -18 -65 -21 -112 -4 -66 -1 -89 16 -126
l20 -46 -64 -63 c-72 -71 -68 -71 -106 11 -48 103 -61 226 -34 325 13 52 65
165 75 165 3 0 33 -28 68 -62z m782 -1 c53 -111 65 -228 36 -342 -15 -57 -62
-155 -74 -155 -4 0 -33 27 -65 59 l-58 59 17 52 c23 70 22 166 -3 222 l-19 43
60 63 c34 34 65 62 69 62 4 0 20 -28 37 -63z m-383 -86 c110 -50 113 -205 4
-262 -66 -35 -143 -14 -187 51 -30 44 -31 110 -1 158 21 35 85 72 123 72 11 0
38 -9 61 -19z m-147 -437 c60 -19 126 -17 191 6 l55 19 63 -63 64 -63 -34 -20
c-150 -88 -328 -92 -480 -11 l-59 31 63 64 c42 42 68 61 78 57 8 -4 35 -13 59
-20z m-304 -234 c12 -20 132 -79 205 -101 89 -27 251 -32 340 -10 59 14 175
66 226 100 l30 20 63 -63 63 -64 -58 -39 c-86 -58 -152 -90 -249 -118 -232
-67 -484 -28 -689 106 l-78 51 63 64 c65 66 73 71 84 54z"/>
<path d="M1038 2868 c-18 -16 -230 -294 -247 -325 -6 -12 -11 -31 -11 -42 0
-23 229 -332 263 -356 18 -13 83 -15 425 -15 236 0 411 4 421 10 20 10 237
290 259 333 10 20 11 35 4 56 -10 30 -180 259 -236 319 l-30 32 -416 0 c-318
0 -420 -3 -432 -12z m839 -249 c43 -56 77 -107 77 -114 -1 -6 -34 -55 -75
-108 l-74 -97 -336 0 -336 0 -76 100 c-43 55 -77 103 -77 107 0 4 35 53 78
110 l77 102 332 1 333 0 77 -101z"/>
<path d="M1255 2635 c-23 -22 -25 -31 -25 -124 0 -90 2 -103 23 -126 32 -38
92 -38 124 0 21 23 23 36 23 126 0 93 -2 102 -25 124 -33 34 -87 34 -120 0z"/>
<path d="M1575 2635 c-23 -22 -25 -31 -25 -124 0 -90 2 -103 23 -126 32 -38
92 -38 124 0 21 23 23 36 23 126 0 93 -2 102 -25 124 -33 34 -87 34 -120 0z"/>
<path d="M1025 1865 c-52 -18 -101 -72 -115 -126 -7 -26 -10 -101 -8 -194 3
-145 4 -153 30 -192 16 -24 44 -49 70 -62 43 -20 57 -21 466 -21 273 0 431 4
449 11 34 13 80 55 99 91 20 39 20 367 -1 407 -20 39 -69 78 -113 91 -23 6
-191 10 -437 10 -319 -1 -408 -4 -440 -15z m355 -290 l0 -136 -152 3 -153 3
-3 119 c-1 66 0 126 2 133 4 10 41 13 156 13 l150 0 0 -135z m480 0 l0 -135
-155 0 -155 0 0 135 0 135 155 0 155 0 0 -135z"/>
<path d="M582 1087 c-20 -21 -22 -34 -22 -130 0 -126 11 -147 80 -147 69 0 80
21 80 148 0 100 -2 110 -23 130 -32 30 -87 29 -115 -1z"/>
<path d="M4422 1087 c-20 -21 -22 -34 -22 -130 0 -126 11 -147 80 -147 69 0
80 21 80 148 0 100 -2 110 -23 130 -32 30 -87 29 -115 -1z"/>
</g>
</svg>
