<?xml version="1.0" standalone="no"?>
<!DOCTYPE svg PUBLIC "-//W3C//DTD SVG 20010904//EN"
 "http://www.w3.org/TR/2001/REC-SVG-20010904/DTD/svg10.dtd">
<svg version="1.0" xmlns="http://www.w3.org/2000/svg"
 width="512.000000pt" height="512.000000pt" viewBox="0 0 512.000000 512.000000"
 preserveAspectRatio="xMidYMid meet">
<metadata>
Created by potrace 1.16, written by Peter Selinger 2001-2019
</metadata>
<g transform="translate(0.000000,512.000000) scale(0.100000,-0.100000)"
fill="#808080" stroke="none">
<path d="M100 4300 c-19 -19 -20 -33 -20 -220 0 -187 1 -201 20 -220 15 -15
33 -20 75 -20 103 0 148 -37 131 -106 -9 -33 -59 -54 -131 -54 -42 0 -60 -5
-75 -20 -19 -19 -20 -33 -20 -460 0 -427 1 -441 20 -460 20 -20 33 -20 1060
-20 1217 0 1080 -17 1080 135 0 144 28 190 106 171 38 -10 54 -59 54 -171 0
-153 -174 -135 1320 -135 1267 0 1280 0 1300 20 19 19 20 33 20 460 0 427 -1
441 -20 460 -15 15 -33 20 -75 20 -103 0 -148 37 -131 106 9 33 59 54 131 54
42 0 60 5 75 20 19 19 20 33 20 220 0 187 -1 201 -20 220 -20 20 -33 20 -2460
20 -2427 0 -2440 0 -2460 -20z m4780 -220 l0 -80 -32 0 c-72 -1 -161 -66 -192
-142 -22 -52 -20 -153 3 -203 35 -74 120 -135 191 -135 l30 0 0 -320 0 -320
-200 0 -200 0 0 100 c0 158 128 140 -1008 140 l-969 0 -19 21 c-69 78 -259 78
-328 0 l-19 -21 -729 0 c-859 0 -768 17 -768 -140 l0 -100 -200 0 -200 0 0
320 0 320 30 0 c71 0 156 61 191 135 23 50 25 151 3 203 -31 76 -120 141 -191
142 l-33 0 0 80 0 80 2320 0 2320 0 0 -80z"/>
<path d="M775 3981 c-22 -10 -54 -34 -72 -52 -54 -58 -63 -92 -63 -251 0 -161
11 -197 71 -255 70 -66 28 -63 891 -63 741 0 785 1 823 19 49 23 99 74 119
123 22 53 22 303 0 356 -20 49 -70 100 -119 123 -38 18 -81 19 -825 19 -744 0
-787 -1 -825 -19z m1569 -155 c42 -17 56 -55 56 -148 0 -89 -18 -132 -60 -147
-46 -16 -1434 -16 -1480 0 -42 15 -60 58 -60 147 0 91 14 131 54 148 47 20
1441 20 1490 0z"/>
<path d="M2640 3840 l0 -80 80 0 80 0 0 80 0 80 -80 0 -80 0 0 -80z"/>
<path d="M2980 3900 c-19 -19 -20 -33 -20 -300 0 -267 1 -281 20 -300 19 -19
33 -20 220 -20 187 0 201 1 220 20 19 19 20 33 20 300 0 267 -1 281 -20 300
-19 19 -33 20 -220 20 -187 0 -201 -1 -220 -20z m300 -300 l0 -160 -80 0 -80
0 0 160 0 160 80 0 80 0 0 -160z"/>
<path d="M3540 3900 c-19 -19 -20 -33 -20 -300 0 -267 1 -281 20 -300 19 -19
33 -20 220 -20 187 0 201 1 220 20 19 19 20 33 20 300 0 267 -1 281 -20 300
-19 19 -33 20 -220 20 -187 0 -201 -1 -220 -20z m300 -300 l0 -160 -80 0 -80
0 0 160 0 160 80 0 80 0 0 -160z"/>
<path d="M4100 3900 c-19 -19 -20 -33 -20 -300 0 -267 1 -281 20 -300 19 -19
33 -20 220 -20 187 0 201 1 220 20 19 19 20 33 20 300 0 267 -1 281 -20 300
-19 19 -33 20 -220 20 -187 0 -201 -1 -220 -20z m300 -300 l0 -160 -80 0 -80
0 0 160 0 160 80 0 80 0 0 -160z"/>
<path d="M2640 3600 l0 -80 80 0 80 0 0 80 0 80 -80 0 -80 0 0 -80z"/>
<path d="M2640 3360 l0 -80 80 0 80 0 0 80 0 80 -80 0 -80 0 0 -80z"/>
<path d="M354 3166 c-30 -30 -34 -40 -34 -86 0 -46 4 -56 34 -86 30 -30 40
-34 86 -34 75 0 120 45 120 120 0 75 -45 120 -120 120 -46 0 -56 -4 -86 -34z"/>
<path d="M4594 3166 c-30 -30 -34 -40 -34 -86 0 -46 4 -56 34 -86 30 -30 40
-34 86 -34 46 0 56 4 86 34 30 30 34 40 34 86 0 46 -4 56 -34 86 -30 30 -40
34 -86 34 -46 0 -56 -4 -86 -34z"/>
<path d="M100 2380 c-19 -19 -20 -33 -20 -220 0 -187 1 -201 20 -220 15 -15
33 -20 75 -20 72 0 122 -21 131 -54 17 -69 -28 -106 -131 -106 -42 0 -60 -5
-75 -20 -19 -19 -20 -33 -20 -460 0 -427 1 -441 20 -460 20 -20 33 -20 1060
-20 1217 0 1080 -17 1080 135 0 144 28 190 106 171 38 -10 54 -59 54 -171 0
-153 -174 -135 1320 -135 1267 0 1280 0 1300 20 19 19 20 33 20 460 0 427 -1
441 -20 460 -15 15 -33 20 -75 20 -103 0 -148 37 -131 106 9 33 59 54 131 54
42 0 60 5 75 20 19 19 20 33 20 220 0 187 -1 201 -20 220 -20 20 -33 20 -2460
20 -2427 0 -2440 0 -2460 -20z m4780 -220 l0 -80 -32 0 c-72 -1 -161 -66 -192
-142 -22 -52 -20 -153 3 -203 35 -74 120 -135 191 -135 l30 0 0 -320 0 -320
-200 0 -200 0 0 100 c0 158 128 140 -1008 140 l-969 0 -19 21 c-69 78 -259 78
-328 0 l-19 -21 -729 0 c-859 0 -768 17 -768 -140 l0 -100 -200 0 -200 0 0
320 0 320 30 0 c71 0 156 61 191 135 23 50 25 151 3 203 -31 76 -120 141 -191
142 l-33 0 0 80 0 80 2320 0 2320 0 0 -80z"/>
<path d="M775 2061 c-22 -10 -54 -34 -72 -52 -54 -58 -63 -92 -63 -251 0 -161
11 -197 71 -255 70 -66 28 -63 891 -63 741 0 785 1 823 19 49 23 99 74 119
123 22 53 22 303 0 356 -20 49 -70 100 -119 123 -38 18 -81 19 -825 19 -744 0
-787 -1 -825 -19z m1569 -155 c42 -17 56 -55 56 -148 0 -89 -18 -132 -60 -147
-46 -16 -1434 -16 -1480 0 -42 15 -60 58 -60 147 0 91 14 131 54 148 47 20
1441 20 1490 0z"/>
<path d="M2640 1920 l0 -80 80 0 80 0 0 80 0 80 -80 0 -80 0 0 -80z"/>
<path d="M2980 1980 c-19 -19 -20 -33 -20 -300 0 -267 1 -281 20 -300 19 -19
33 -20 220 -20 187 0 201 1 220 20 19 19 20 33 20 300 0 267 -1 281 -20 300
-19 19 -33 20 -220 20 -187 0 -201 -1 -220 -20z m300 -300 l0 -160 -80 0 -80
0 0 160 0 160 80 0 80 0 0 -160z"/>
<path d="M3540 1980 c-19 -19 -20 -33 -20 -300 0 -267 1 -281 20 -300 19 -19
33 -20 220 -20 187 0 201 1 220 20 19 19 20 33 20 300 0 267 -1 281 -20 300
-19 19 -33 20 -220 20 -187 0 -201 -1 -220 -20z m300 -300 l0 -160 -80 0 -80
0 0 160 0 160 80 0 80 0 0 -160z"/>
<path d="M4100 1980 c-19 -19 -20 -33 -20 -300 0 -267 1 -281 20 -300 19 -19
33 -20 220 -20 187 0 201 1 220 20 19 19 20 33 20 300 0 267 -1 281 -20 300
-19 19 -33 20 -220 20 -187 0 -201 -1 -220 -20z m300 -300 l0 -160 -80 0 -80
0 0 160 0 160 80 0 80 0 0 -160z"/>
<path d="M2640 1680 l0 -80 80 0 80 0 0 80 0 80 -80 0 -80 0 0 -80z"/>
<path d="M2640 1440 l0 -80 80 0 80 0 0 80 0 80 -80 0 -80 0 0 -80z"/>
<path d="M354 1246 c-30 -30 -34 -40 -34 -86 0 -46 4 -56 34 -86 30 -30 40
-34 86 -34 46 0 56 4 86 34 30 30 34 40 34 86 0 46 -4 56 -34 86 -30 30 -40
34 -86 34 -46 0 -56 -4 -86 -34z"/>
<path d="M4594 1246 c-30 -30 -34 -40 -34 -86 0 -46 4 -56 34 -86 30 -30 40
-34 86 -34 46 0 56 4 86 34 30 30 34 40 34 86 0 75 -45 120 -120 120 -46 0
-56 -4 -86 -34z"/>
</g>
</svg>
